%TF.GenerationSoftware,KiCad,Pcbnew,7.0.5-0*%
%TF.CreationDate,2023-07-03T13:56:25+02:00*%
%TF.ProjectId,Proditor,50726f64-6974-46f7-922e-6b696361645f,rev?*%
%TF.SameCoordinates,Original*%
%TF.FileFunction,Copper,L2,Bot*%
%TF.FilePolarity,Positive*%
%FSLAX46Y46*%
G04 Gerber Fmt 4.6, Leading zero omitted, Abs format (unit mm)*
G04 Created by KiCad (PCBNEW 7.0.5-0) date 2023-07-03 13:56:25*
%MOMM*%
%LPD*%
G01*
G04 APERTURE LIST*
%TA.AperFunction,ComponentPad*%
%ADD10R,1.000000X1.000000*%
%TD*%
%TA.AperFunction,ComponentPad*%
%ADD11O,1.000000X1.000000*%
%TD*%
%TA.AperFunction,ViaPad*%
%ADD12C,0.800000*%
%TD*%
%TA.AperFunction,Conductor*%
%ADD13C,0.250000*%
%TD*%
%TA.AperFunction,Conductor*%
%ADD14C,0.500000*%
%TD*%
G04 APERTURE END LIST*
D10*
%TO.P,J2,1,Pin_1*%
%TO.N,Net-(J2-Pin_1)*%
X147525000Y-93319600D03*
D11*
%TO.P,J2,2,Pin_2*%
%TO.N,Net-(J2-Pin_2)*%
X148795000Y-93319600D03*
%TO.P,J2,3,Pin_3*%
%TO.N,Net-(J2-Pin_3)*%
X150065000Y-93319600D03*
%TO.P,J2,4,Pin_4*%
%TO.N,Net-(J1-GND)*%
X151335000Y-93319600D03*
%TO.P,J2,5,Pin_5*%
%TO.N,Net-(J1-VBUS)*%
X152605000Y-93319600D03*
%TO.P,J2,6,Pin_6*%
%TO.N,Net-(J2-Pin_6)*%
X153875000Y-93319600D03*
%TD*%
D12*
%TO.N,Net-(J2-Pin_1)*%
X146812000Y-91059000D03*
%TO.N,Net-(J2-Pin_2)*%
X147700000Y-90513500D03*
%TO.N,Net-(J1-GND)*%
X146812000Y-86614000D03*
X143205200Y-84683600D03*
X154830000Y-92520000D03*
X143205200Y-92350000D03*
%TO.N,Net-(U1-PA05)*%
X158267400Y-84800000D03*
X146812000Y-84067200D03*
%TD*%
D13*
%TO.N,Net-(J2-Pin_1)*%
X147525000Y-91772000D02*
X146812000Y-91059000D01*
X147525000Y-93319600D02*
X147525000Y-91772000D01*
%TO.N,Net-(J2-Pin_2)*%
X148795000Y-91608500D02*
X148795000Y-93319600D01*
X147700000Y-90513500D02*
X148795000Y-91608500D01*
D14*
%TO.N,Net-(J1-GND)*%
X154825000Y-93975000D02*
X154413600Y-94386400D01*
X143205200Y-84683600D02*
X143205200Y-92350000D01*
X154413600Y-94386400D02*
X151300000Y-94386400D01*
X151300000Y-94386400D02*
X148285200Y-94386400D01*
X151335000Y-91924400D02*
X151335000Y-93319600D01*
X151335000Y-93319600D02*
X151335000Y-94351400D01*
X151335000Y-94351400D02*
X151300000Y-94386400D01*
X146812000Y-86614000D02*
X146812000Y-87401400D01*
X148285200Y-94386400D02*
X148336000Y-94335600D01*
X154825000Y-92525000D02*
X154825000Y-93975000D01*
X143205200Y-92350000D02*
X145241600Y-94386400D01*
X154830000Y-92520000D02*
X154825000Y-92525000D01*
X145241600Y-94386400D02*
X148285200Y-94386400D01*
X146812000Y-87401400D02*
X151335000Y-91924400D01*
D13*
%TO.N,Net-(U1-PA05)*%
X158267400Y-84800000D02*
X155100000Y-84800000D01*
X155100000Y-84800000D02*
X154367200Y-84067200D01*
X154367200Y-84067200D02*
X146812000Y-84067200D01*
%TD*%
%TA.AperFunction,Conductor*%
%TO.N,Net-(J1-GND)*%
G36*
X146068773Y-83331685D02*
G01*
X146114528Y-83384489D01*
X146124472Y-83453647D01*
X146095447Y-83517203D01*
X146093885Y-83518971D01*
X146079466Y-83534985D01*
X145984821Y-83698915D01*
X145984818Y-83698922D01*
X145944353Y-83823462D01*
X145926326Y-83878944D01*
X145906540Y-84067200D01*
X145926326Y-84255456D01*
X145926327Y-84255459D01*
X145984818Y-84435477D01*
X145984821Y-84435484D01*
X146079467Y-84599416D01*
X146181185Y-84712385D01*
X146206129Y-84740088D01*
X146359265Y-84851348D01*
X146359270Y-84851351D01*
X146532192Y-84928342D01*
X146532197Y-84928344D01*
X146717354Y-84967700D01*
X146717355Y-84967700D01*
X146906644Y-84967700D01*
X146906646Y-84967700D01*
X147091803Y-84928344D01*
X147264730Y-84851351D01*
X147417871Y-84740088D01*
X147420788Y-84736847D01*
X147423600Y-84733726D01*
X147483087Y-84697079D01*
X147515748Y-84692700D01*
X154056748Y-84692700D01*
X154123787Y-84712385D01*
X154144429Y-84729019D01*
X154599194Y-85183784D01*
X154609019Y-85196048D01*
X154609240Y-85195866D01*
X154614210Y-85201874D01*
X154663949Y-85248582D01*
X154665316Y-85249906D01*
X154685530Y-85270120D01*
X154691004Y-85274366D01*
X154695442Y-85278156D01*
X154729418Y-85310062D01*
X154729422Y-85310064D01*
X154746973Y-85319713D01*
X154763231Y-85330392D01*
X154779064Y-85342674D01*
X154801015Y-85352172D01*
X154821837Y-85361183D01*
X154827081Y-85363752D01*
X154867908Y-85386197D01*
X154887312Y-85391179D01*
X154905710Y-85397478D01*
X154924105Y-85405438D01*
X154970129Y-85412726D01*
X154975832Y-85413907D01*
X155020981Y-85425500D01*
X155041016Y-85425500D01*
X155060413Y-85427026D01*
X155080196Y-85430160D01*
X155126583Y-85425775D01*
X155132422Y-85425500D01*
X157563652Y-85425500D01*
X157630691Y-85445185D01*
X157655800Y-85466526D01*
X157661526Y-85472885D01*
X157661530Y-85472889D01*
X157814665Y-85584148D01*
X157814670Y-85584151D01*
X157987592Y-85661142D01*
X157987597Y-85661144D01*
X158172754Y-85700500D01*
X158172755Y-85700500D01*
X158362044Y-85700500D01*
X158362046Y-85700500D01*
X158547203Y-85661144D01*
X158720130Y-85584151D01*
X158873271Y-85472888D01*
X158999933Y-85332216D01*
X159094579Y-85168284D01*
X159153074Y-84988256D01*
X159172860Y-84800000D01*
X159153074Y-84611744D01*
X159094579Y-84431716D01*
X158999933Y-84267784D01*
X158873271Y-84127112D01*
X158849136Y-84109577D01*
X158806472Y-84054248D01*
X158800493Y-83984634D01*
X158833099Y-83922839D01*
X158858633Y-83903618D01*
X158871308Y-83890596D01*
X158956920Y-83825946D01*
X158989498Y-83790209D01*
X159002461Y-83777904D01*
X159006663Y-83774455D01*
X159014061Y-83763265D01*
X159081837Y-83688919D01*
X159114572Y-83636050D01*
X159119359Y-83629356D01*
X159125546Y-83621817D01*
X159130061Y-83611034D01*
X159130968Y-83609569D01*
X159179448Y-83531272D01*
X159205521Y-83463968D01*
X159208650Y-83457153D01*
X159213026Y-83448965D01*
X159215071Y-83439318D01*
X159233709Y-83391205D01*
X159276283Y-83335804D01*
X159342051Y-83312214D01*
X159349336Y-83312000D01*
X161524638Y-83312000D01*
X161591677Y-83331685D01*
X161612319Y-83348319D01*
X162301681Y-84037681D01*
X162335166Y-84099004D01*
X162338000Y-84125362D01*
X162338000Y-94055638D01*
X162318315Y-94122677D01*
X162301681Y-94143319D01*
X161612319Y-94832681D01*
X161550996Y-94866166D01*
X161524638Y-94869000D01*
X159333407Y-94869000D01*
X159266368Y-94849315D01*
X159224050Y-94803456D01*
X159208650Y-94774645D01*
X159205512Y-94767807D01*
X159179450Y-94700533D01*
X159179446Y-94700524D01*
X159130060Y-94620763D01*
X159127869Y-94612810D01*
X159119353Y-94602434D01*
X159114567Y-94595742D01*
X159081837Y-94542881D01*
X159073510Y-94533746D01*
X159014063Y-94468536D01*
X159009901Y-94459998D01*
X159002454Y-94453887D01*
X158989482Y-94441573D01*
X158989479Y-94441570D01*
X158956920Y-94405854D01*
X158956919Y-94405853D01*
X158956917Y-94405851D01*
X158871310Y-94341204D01*
X158864950Y-94332634D01*
X158856415Y-94328072D01*
X158840141Y-94317667D01*
X158808950Y-94294112D01*
X158807638Y-94293300D01*
X158800939Y-94288509D01*
X158795557Y-94284092D01*
X158774416Y-94276916D01*
X158706988Y-94243341D01*
X158698358Y-94235340D01*
X158689288Y-94232589D01*
X158670013Y-94224930D01*
X158642977Y-94211468D01*
X158642971Y-94211465D01*
X158642964Y-94211463D01*
X158637635Y-94209399D01*
X158637773Y-94209040D01*
X158621169Y-94202330D01*
X158620699Y-94202078D01*
X158599534Y-94199106D01*
X158527058Y-94178484D01*
X158516253Y-94171668D01*
X158507212Y-94170778D01*
X158485433Y-94166641D01*
X158479539Y-94164964D01*
X158464628Y-94160721D01*
X158459492Y-94160246D01*
X158434940Y-94155436D01*
X158433403Y-94154969D01*
X158413107Y-94155947D01*
X158338068Y-94148994D01*
X158325328Y-94143935D01*
X158316831Y-94144772D01*
X158293243Y-94144840D01*
X158280007Y-94143614D01*
X158280002Y-94143614D01*
X158280000Y-94143614D01*
X158276536Y-94143935D01*
X158266754Y-94144841D01*
X158243166Y-94144772D01*
X158240566Y-94144515D01*
X158221932Y-94148994D01*
X158146892Y-94155948D01*
X158132592Y-94153150D01*
X158125058Y-94155436D01*
X158100508Y-94160246D01*
X158095370Y-94160722D01*
X158095369Y-94160722D01*
X158074569Y-94166640D01*
X158052793Y-94170776D01*
X158049271Y-94171122D01*
X158032939Y-94178485D01*
X157960465Y-94199106D01*
X157945104Y-94198977D01*
X157938830Y-94202331D01*
X157922226Y-94209040D01*
X157922365Y-94209399D01*
X157917031Y-94211464D01*
X157917029Y-94211465D01*
X157917026Y-94211466D01*
X157917022Y-94211468D01*
X157889987Y-94224930D01*
X157870712Y-94232589D01*
X157866556Y-94233849D01*
X157853011Y-94243341D01*
X157785581Y-94276917D01*
X157769744Y-94279739D01*
X157759059Y-94288509D01*
X157752368Y-94293295D01*
X157751052Y-94294109D01*
X157719858Y-94317666D01*
X157703588Y-94328068D01*
X157699184Y-94330422D01*
X157688690Y-94341204D01*
X157603075Y-94405858D01*
X157570519Y-94441570D01*
X157557549Y-94453883D01*
X157553343Y-94457334D01*
X157545936Y-94468537D01*
X157478163Y-94542880D01*
X157478159Y-94542885D01*
X157445438Y-94595732D01*
X157440647Y-94602432D01*
X157434456Y-94609975D01*
X157429940Y-94620762D01*
X157380552Y-94700527D01*
X157380550Y-94700531D01*
X157354491Y-94767797D01*
X157351355Y-94774632D01*
X157335951Y-94803451D01*
X157286990Y-94853296D01*
X157226592Y-94869000D01*
X142904000Y-94869000D01*
X142836961Y-94849315D01*
X142791206Y-94796511D01*
X142780000Y-94745000D01*
X142780000Y-91059000D01*
X145906540Y-91059000D01*
X145926326Y-91247256D01*
X145926327Y-91247259D01*
X145984818Y-91427277D01*
X145984821Y-91427284D01*
X146079467Y-91591216D01*
X146169531Y-91691242D01*
X146206129Y-91731888D01*
X146359265Y-91843148D01*
X146359270Y-91843151D01*
X146532192Y-91920142D01*
X146532197Y-91920144D01*
X146717354Y-91959500D01*
X146775500Y-91959500D01*
X146842539Y-91979185D01*
X146888294Y-92031989D01*
X146899500Y-92083500D01*
X146899500Y-92246133D01*
X146879815Y-92313172D01*
X146827011Y-92358927D01*
X146818836Y-92362314D01*
X146782665Y-92375805D01*
X146667455Y-92462052D01*
X146667452Y-92462055D01*
X146581206Y-92577264D01*
X146581202Y-92577271D01*
X146530908Y-92712117D01*
X146524501Y-92771716D01*
X146524500Y-92771735D01*
X146524500Y-93867470D01*
X146524501Y-93867476D01*
X146530908Y-93927083D01*
X146581202Y-94061928D01*
X146581206Y-94061935D01*
X146667452Y-94177144D01*
X146667455Y-94177147D01*
X146782664Y-94263393D01*
X146782671Y-94263397D01*
X146917517Y-94313691D01*
X146917516Y-94313691D01*
X146924444Y-94314435D01*
X146977127Y-94320100D01*
X148072872Y-94320099D01*
X148132483Y-94313691D01*
X148267331Y-94263396D01*
X148275379Y-94257370D01*
X148340842Y-94232951D01*
X148404474Y-94246495D01*
X148404645Y-94246083D01*
X148406875Y-94247006D01*
X148408146Y-94247277D01*
X148410273Y-94248414D01*
X148598868Y-94305624D01*
X148795000Y-94324941D01*
X148991132Y-94305624D01*
X149179727Y-94248414D01*
X149353538Y-94155510D01*
X149353544Y-94155504D01*
X149358607Y-94152123D01*
X149359703Y-94153764D01*
X149415639Y-94130005D01*
X149484507Y-94141794D01*
X149501148Y-94152488D01*
X149501393Y-94152123D01*
X149506458Y-94155507D01*
X149506462Y-94155510D01*
X149611152Y-94211468D01*
X149678147Y-94247278D01*
X149680273Y-94248414D01*
X149868868Y-94305624D01*
X150065000Y-94324941D01*
X150261132Y-94305624D01*
X150449727Y-94248414D01*
X150623538Y-94155510D01*
X150623544Y-94155504D01*
X150628607Y-94152123D01*
X150629624Y-94153645D01*
X150686021Y-94129684D01*
X150754890Y-94141466D01*
X150771424Y-94152089D01*
X150771678Y-94151710D01*
X150776738Y-94155091D01*
X150950465Y-94247949D01*
X151085000Y-94288759D01*
X151585000Y-94288759D01*
X151719534Y-94247949D01*
X151893259Y-94155092D01*
X151898320Y-94151711D01*
X151899444Y-94153393D01*
X151955203Y-94129686D01*
X152024075Y-94141451D01*
X152041186Y-94152443D01*
X152041399Y-94152126D01*
X152046457Y-94155506D01*
X152046462Y-94155510D01*
X152151152Y-94211468D01*
X152218147Y-94247278D01*
X152220273Y-94248414D01*
X152408868Y-94305624D01*
X152605000Y-94324941D01*
X152801132Y-94305624D01*
X152989727Y-94248414D01*
X153163538Y-94155510D01*
X153163544Y-94155504D01*
X153168607Y-94152123D01*
X153169703Y-94153764D01*
X153225639Y-94130005D01*
X153294507Y-94141794D01*
X153311148Y-94152488D01*
X153311393Y-94152123D01*
X153316458Y-94155507D01*
X153316462Y-94155510D01*
X153421152Y-94211468D01*
X153488147Y-94247278D01*
X153490273Y-94248414D01*
X153678868Y-94305624D01*
X153875000Y-94324941D01*
X154071132Y-94305624D01*
X154259727Y-94248414D01*
X154261853Y-94247278D01*
X154352217Y-94198977D01*
X154433538Y-94155510D01*
X154585883Y-94030483D01*
X154710910Y-93878138D01*
X154803814Y-93704327D01*
X154861024Y-93515732D01*
X154880341Y-93319600D01*
X154861024Y-93123468D01*
X154803814Y-92934873D01*
X154803811Y-92934869D01*
X154803811Y-92934866D01*
X154710913Y-92761067D01*
X154710909Y-92761060D01*
X154585883Y-92608716D01*
X154433539Y-92483690D01*
X154433532Y-92483686D01*
X154259733Y-92390788D01*
X154259727Y-92390786D01*
X154071132Y-92333576D01*
X154071129Y-92333575D01*
X153875000Y-92314259D01*
X153678870Y-92333575D01*
X153490266Y-92390788D01*
X153316467Y-92483686D01*
X153311399Y-92487073D01*
X153310305Y-92485436D01*
X153254337Y-92509196D01*
X153185471Y-92497395D01*
X153168843Y-92486709D01*
X153168601Y-92487073D01*
X153163532Y-92483686D01*
X152989733Y-92390788D01*
X152989727Y-92390786D01*
X152801132Y-92333576D01*
X152801129Y-92333575D01*
X152605000Y-92314259D01*
X152408870Y-92333575D01*
X152220266Y-92390788D01*
X152046467Y-92483686D01*
X152041399Y-92487073D01*
X152040386Y-92485558D01*
X151983936Y-92509520D01*
X151915071Y-92497715D01*
X151898574Y-92487111D01*
X151898322Y-92487490D01*
X151893253Y-92484103D01*
X151719541Y-92391252D01*
X151585000Y-92350439D01*
X151585000Y-94288759D01*
X151085000Y-94288759D01*
X151085000Y-93365249D01*
X151135000Y-93365249D01*
X151174613Y-93447505D01*
X151245992Y-93504427D01*
X151312468Y-93519600D01*
X151357532Y-93519600D01*
X151424008Y-93504427D01*
X151495387Y-93447505D01*
X151535000Y-93365249D01*
X151535000Y-93273951D01*
X151495387Y-93191695D01*
X151424008Y-93134773D01*
X151357532Y-93119600D01*
X151312468Y-93119600D01*
X151245992Y-93134773D01*
X151174613Y-93191695D01*
X151135000Y-93273951D01*
X151135000Y-93365249D01*
X151085000Y-93365249D01*
X151085000Y-92350439D01*
X151084999Y-92350439D01*
X150950458Y-92391252D01*
X150776742Y-92484105D01*
X150771673Y-92487493D01*
X150770556Y-92485821D01*
X150714715Y-92509521D01*
X150645851Y-92497711D01*
X150628811Y-92486758D01*
X150628601Y-92487073D01*
X150623532Y-92483686D01*
X150449733Y-92390788D01*
X150449727Y-92390786D01*
X150261132Y-92333576D01*
X150261129Y-92333575D01*
X150065000Y-92314259D01*
X149868870Y-92333575D01*
X149813278Y-92350439D01*
X149680273Y-92390786D01*
X149680270Y-92390787D01*
X149680268Y-92390788D01*
X149602952Y-92432114D01*
X149534550Y-92446355D01*
X149469306Y-92421354D01*
X149427936Y-92365049D01*
X149420500Y-92322755D01*
X149420500Y-91691242D01*
X149422224Y-91675622D01*
X149421939Y-91675596D01*
X149422673Y-91667833D01*
X149420531Y-91599652D01*
X149420500Y-91597705D01*
X149420500Y-91569154D01*
X149420500Y-91569150D01*
X149419631Y-91562272D01*
X149419172Y-91556443D01*
X149417709Y-91509872D01*
X149412122Y-91490644D01*
X149408174Y-91471584D01*
X149405663Y-91451704D01*
X149388512Y-91408387D01*
X149386619Y-91402858D01*
X149373618Y-91358109D01*
X149373616Y-91358106D01*
X149363423Y-91340871D01*
X149354861Y-91323394D01*
X149347487Y-91304770D01*
X149347486Y-91304768D01*
X149320079Y-91267045D01*
X149316888Y-91262186D01*
X149293172Y-91222083D01*
X149293165Y-91222074D01*
X149279006Y-91207915D01*
X149266368Y-91193119D01*
X149254594Y-91176913D01*
X149218688Y-91147209D01*
X149214376Y-91143286D01*
X148638960Y-90567869D01*
X148605475Y-90506546D01*
X148603323Y-90493168D01*
X148585674Y-90325244D01*
X148527179Y-90145216D01*
X148432533Y-89981284D01*
X148305871Y-89840612D01*
X148305870Y-89840611D01*
X148152734Y-89729351D01*
X148152729Y-89729348D01*
X147979807Y-89652357D01*
X147979802Y-89652355D01*
X147834000Y-89621365D01*
X147794646Y-89613000D01*
X147605354Y-89613000D01*
X147572897Y-89619898D01*
X147420197Y-89652355D01*
X147420192Y-89652357D01*
X147247270Y-89729348D01*
X147247265Y-89729351D01*
X147094129Y-89840611D01*
X146967466Y-89981285D01*
X146900947Y-90096500D01*
X146850380Y-90144715D01*
X146793560Y-90158500D01*
X146717354Y-90158500D01*
X146684897Y-90165398D01*
X146532197Y-90197855D01*
X146532192Y-90197857D01*
X146359270Y-90274848D01*
X146359265Y-90274851D01*
X146206129Y-90386111D01*
X146079466Y-90526785D01*
X145984821Y-90690715D01*
X145984818Y-90690722D01*
X145936639Y-90839003D01*
X145926326Y-90870744D01*
X145906540Y-91059000D01*
X142780000Y-91059000D01*
X142780000Y-89234387D01*
X156523500Y-89234387D01*
X156543794Y-89369023D01*
X156562604Y-89493815D01*
X156562605Y-89493817D01*
X156562606Y-89493823D01*
X156639938Y-89744526D01*
X156753767Y-89980896D01*
X156753768Y-89980897D01*
X156753770Y-89980900D01*
X156753772Y-89980904D01*
X156874855Y-90158500D01*
X156901567Y-90197679D01*
X157080014Y-90390001D01*
X157080018Y-90390004D01*
X157080019Y-90390005D01*
X157285143Y-90553586D01*
X157512357Y-90684768D01*
X157756584Y-90780620D01*
X158012370Y-90839002D01*
X158012376Y-90839002D01*
X158012379Y-90839003D01*
X158208484Y-90853699D01*
X158208503Y-90853699D01*
X158208506Y-90853700D01*
X158208508Y-90853700D01*
X158339492Y-90853700D01*
X158339494Y-90853700D01*
X158339496Y-90853699D01*
X158339515Y-90853699D01*
X158535620Y-90839003D01*
X158535622Y-90839002D01*
X158535630Y-90839002D01*
X158791416Y-90780620D01*
X159035643Y-90684768D01*
X159262857Y-90553586D01*
X159467981Y-90390005D01*
X159646433Y-90197679D01*
X159794228Y-89980904D01*
X159908063Y-89744523D01*
X159985396Y-89493815D01*
X160024500Y-89234382D01*
X160024500Y-88972018D01*
X159985396Y-88712585D01*
X159908063Y-88461877D01*
X159896121Y-88437080D01*
X159794232Y-88225503D01*
X159794231Y-88225502D01*
X159794230Y-88225501D01*
X159794228Y-88225496D01*
X159646433Y-88008721D01*
X159636441Y-87997953D01*
X159467985Y-87816398D01*
X159428533Y-87784936D01*
X159262857Y-87652814D01*
X159035643Y-87521632D01*
X158791416Y-87425780D01*
X158791411Y-87425778D01*
X158791402Y-87425776D01*
X158573818Y-87376114D01*
X158535630Y-87367398D01*
X158535629Y-87367397D01*
X158535625Y-87367397D01*
X158535620Y-87367396D01*
X158339515Y-87352700D01*
X158339494Y-87352700D01*
X158208506Y-87352700D01*
X158208484Y-87352700D01*
X158012379Y-87367396D01*
X158012374Y-87367397D01*
X157756597Y-87425776D01*
X157756578Y-87425782D01*
X157512356Y-87521632D01*
X157285143Y-87652814D01*
X157080014Y-87816398D01*
X156901567Y-88008720D01*
X156753768Y-88225502D01*
X156753767Y-88225503D01*
X156639938Y-88461873D01*
X156562606Y-88712576D01*
X156562605Y-88712581D01*
X156562604Y-88712585D01*
X156547853Y-88810447D01*
X156523500Y-88972012D01*
X156523500Y-89234387D01*
X142780000Y-89234387D01*
X142780000Y-83436000D01*
X142799685Y-83368961D01*
X142852489Y-83323206D01*
X142904000Y-83312000D01*
X146001734Y-83312000D01*
X146068773Y-83331685D01*
G37*
%TD.AperFunction*%
%TD*%
M02*
