%TF.GenerationSoftware,KiCad,Pcbnew,7.0.5-0*%
%TF.CreationDate,2023-07-03T13:56:25+02:00*%
%TF.ProjectId,Proditor,50726f64-6974-46f7-922e-6b696361645f,rev?*%
%TF.SameCoordinates,Original*%
%TF.FileFunction,Other,User*%
%FSLAX46Y46*%
G04 Gerber Fmt 4.6, Leading zero omitted, Abs format (unit mm)*
G04 Created by KiCad (PCBNEW 7.0.5-0) date 2023-07-03 13:56:25*
%MOMM*%
%LPD*%
G01*
G04 APERTURE LIST*
%ADD10C,0.050000*%
G04 APERTURE END LIST*
D10*
%TO.C,SW1*%
X155024000Y-94353200D02*
X155024000Y-83853200D01*
X161524000Y-94353200D02*
X155024000Y-94353200D01*
X155024000Y-83853200D02*
X161524000Y-83853200D01*
X161524000Y-83853200D02*
X161524000Y-94353200D01*
%TO.C,R1*%
X154580000Y-86520000D02*
X151620000Y-86520000D01*
X151620000Y-86520000D02*
X151620000Y-85060000D01*
X154580000Y-85060000D02*
X154580000Y-86520000D01*
X151620000Y-85060000D02*
X154580000Y-85060000D01*
%TO.C,C1*%
X146870000Y-92590000D02*
X146870000Y-94050000D01*
X143910000Y-94050000D02*
X143910000Y-92590000D01*
X146870000Y-94050000D02*
X143910000Y-94050000D01*
X143910000Y-92590000D02*
X146870000Y-92590000D01*
%TO.C,J2*%
X146375000Y-94869600D02*
X155025000Y-94869600D01*
X155025000Y-94869600D02*
X155025000Y-91769600D01*
X146375000Y-91769600D02*
X146375000Y-94869600D01*
X155025000Y-91769600D02*
X146375000Y-91769600D01*
%TO.C,U2*%
X154817800Y-90620000D02*
X154817800Y-86780000D01*
X151417800Y-86780000D02*
X151417800Y-90620000D01*
X154817800Y-86780000D02*
X151417800Y-86780000D01*
X151417800Y-90620000D02*
X154817800Y-90620000D01*
%TO.C,D1*%
X151607500Y-83330000D02*
X154567500Y-83330000D01*
X151607500Y-84790000D02*
X151607500Y-83330000D01*
X154567500Y-83330000D02*
X154567500Y-84790000D01*
X154567500Y-84790000D02*
X151607500Y-84790000D01*
%TO.C,U1*%
X151197800Y-83297200D02*
X143797800Y-83297200D01*
X143797800Y-83297200D02*
X143797800Y-92457200D01*
X143797800Y-92457200D02*
X151197800Y-92457200D01*
X151197800Y-92457200D02*
X151197800Y-83297200D01*
%TO.C,C2*%
X154580000Y-90870000D02*
X154580000Y-92330000D01*
X151620000Y-92330000D02*
X151620000Y-90870000D01*
X154580000Y-92330000D02*
X151620000Y-92330000D01*
X151620000Y-90870000D02*
X154580000Y-90870000D01*
%TO.C,H1*%
X161524000Y-89103200D02*
G75*
G03*
X161524000Y-89103200I-3250000J0D01*
G01*
%TD*%
M02*
