%TF.GenerationSoftware,KiCad,Pcbnew,7.0.5-0*%
%TF.CreationDate,2023-07-03T13:56:25+02:00*%
%TF.ProjectId,Proditor,50726f64-6974-46f7-922e-6b696361645f,rev?*%
%TF.SameCoordinates,Original*%
%TF.FileFunction,Legend,Bot*%
%TF.FilePolarity,Positive*%
%FSLAX46Y46*%
G04 Gerber Fmt 4.6, Leading zero omitted, Abs format (unit mm)*
G04 Created by KiCad (PCBNEW 7.0.5-0) date 2023-07-03 13:56:25*
%MOMM*%
%LPD*%
G01*
G04 APERTURE LIST*
%ADD10C,0.500000*%
%ADD11C,0.150000*%
%ADD12C,0.300000*%
%ADD13C,0.200000*%
G04 APERTURE END LIST*
D10*
X133248400Y-89103200D02*
X136525000Y-89103200D01*
X137160000Y-83820000D02*
X137160000Y-94488000D01*
X133248400Y-89103200D02*
X134518400Y-87833200D01*
X133248400Y-89103200D02*
X134518400Y-90373200D01*
X134518400Y-87833200D02*
X133248400Y-89103200D01*
D11*
X138560180Y-94278220D02*
X139560180Y-94278220D01*
X139560180Y-94278220D02*
X138560180Y-93706792D01*
X138560180Y-93706792D02*
X139560180Y-93706792D01*
X138655419Y-93230601D02*
X138607800Y-93182982D01*
X138607800Y-93182982D02*
X138560180Y-93230601D01*
X138560180Y-93230601D02*
X138607800Y-93278220D01*
X138607800Y-93278220D02*
X138655419Y-93230601D01*
X138655419Y-93230601D02*
X138560180Y-93230601D01*
X139179228Y-93230601D02*
X139131609Y-93182982D01*
X139131609Y-93182982D02*
X139083990Y-93230601D01*
X139083990Y-93230601D02*
X139131609Y-93278220D01*
X139131609Y-93278220D02*
X139179228Y-93230601D01*
X139179228Y-93230601D02*
X139083990Y-93230601D01*
D12*
X146403082Y-87431409D02*
X146403082Y-89031409D01*
X146403082Y-89031409D02*
X146860225Y-89031409D01*
X146860225Y-89031409D02*
X146974510Y-88955219D01*
X146974510Y-88955219D02*
X147031653Y-88879028D01*
X147031653Y-88879028D02*
X147088796Y-88726647D01*
X147088796Y-88726647D02*
X147088796Y-88498076D01*
X147088796Y-88498076D02*
X147031653Y-88345695D01*
X147031653Y-88345695D02*
X146974510Y-88269504D01*
X146974510Y-88269504D02*
X146860225Y-88193314D01*
X146860225Y-88193314D02*
X146403082Y-88193314D01*
X148288796Y-87431409D02*
X147888796Y-88193314D01*
X147603082Y-87431409D02*
X147603082Y-89031409D01*
X147603082Y-89031409D02*
X148060225Y-89031409D01*
X148060225Y-89031409D02*
X148174510Y-88955219D01*
X148174510Y-88955219D02*
X148231653Y-88879028D01*
X148231653Y-88879028D02*
X148288796Y-88726647D01*
X148288796Y-88726647D02*
X148288796Y-88498076D01*
X148288796Y-88498076D02*
X148231653Y-88345695D01*
X148231653Y-88345695D02*
X148174510Y-88269504D01*
X148174510Y-88269504D02*
X148060225Y-88193314D01*
X148060225Y-88193314D02*
X147603082Y-88193314D01*
X149031653Y-89031409D02*
X149260225Y-89031409D01*
X149260225Y-89031409D02*
X149374510Y-88955219D01*
X149374510Y-88955219D02*
X149488796Y-88802838D01*
X149488796Y-88802838D02*
X149545939Y-88498076D01*
X149545939Y-88498076D02*
X149545939Y-87964742D01*
X149545939Y-87964742D02*
X149488796Y-87659980D01*
X149488796Y-87659980D02*
X149374510Y-87507600D01*
X149374510Y-87507600D02*
X149260225Y-87431409D01*
X149260225Y-87431409D02*
X149031653Y-87431409D01*
X149031653Y-87431409D02*
X148917368Y-87507600D01*
X148917368Y-87507600D02*
X148803082Y-87659980D01*
X148803082Y-87659980D02*
X148745939Y-87964742D01*
X148745939Y-87964742D02*
X148745939Y-88498076D01*
X148745939Y-88498076D02*
X148803082Y-88802838D01*
X148803082Y-88802838D02*
X148917368Y-88955219D01*
X148917368Y-88955219D02*
X149031653Y-89031409D01*
X150060225Y-87431409D02*
X150060225Y-89031409D01*
X150060225Y-89031409D02*
X150345939Y-89031409D01*
X150345939Y-89031409D02*
X150517368Y-88955219D01*
X150517368Y-88955219D02*
X150631653Y-88802838D01*
X150631653Y-88802838D02*
X150688796Y-88650457D01*
X150688796Y-88650457D02*
X150745939Y-88345695D01*
X150745939Y-88345695D02*
X150745939Y-88117123D01*
X150745939Y-88117123D02*
X150688796Y-87812361D01*
X150688796Y-87812361D02*
X150631653Y-87659980D01*
X150631653Y-87659980D02*
X150517368Y-87507600D01*
X150517368Y-87507600D02*
X150345939Y-87431409D01*
X150345939Y-87431409D02*
X150060225Y-87431409D01*
X151260225Y-87431409D02*
X151260225Y-89031409D01*
X151660225Y-89031409D02*
X152345940Y-89031409D01*
X152003082Y-87431409D02*
X152003082Y-89031409D01*
X152974511Y-89031409D02*
X153203083Y-89031409D01*
X153203083Y-89031409D02*
X153317368Y-88955219D01*
X153317368Y-88955219D02*
X153431654Y-88802838D01*
X153431654Y-88802838D02*
X153488797Y-88498076D01*
X153488797Y-88498076D02*
X153488797Y-87964742D01*
X153488797Y-87964742D02*
X153431654Y-87659980D01*
X153431654Y-87659980D02*
X153317368Y-87507600D01*
X153317368Y-87507600D02*
X153203083Y-87431409D01*
X153203083Y-87431409D02*
X152974511Y-87431409D01*
X152974511Y-87431409D02*
X152860226Y-87507600D01*
X152860226Y-87507600D02*
X152745940Y-87659980D01*
X152745940Y-87659980D02*
X152688797Y-87964742D01*
X152688797Y-87964742D02*
X152688797Y-88498076D01*
X152688797Y-88498076D02*
X152745940Y-88802838D01*
X152745940Y-88802838D02*
X152860226Y-88955219D01*
X152860226Y-88955219D02*
X152974511Y-89031409D01*
X154688797Y-87431409D02*
X154288797Y-88193314D01*
X154003083Y-87431409D02*
X154003083Y-89031409D01*
X154003083Y-89031409D02*
X154460226Y-89031409D01*
X154460226Y-89031409D02*
X154574511Y-88955219D01*
X154574511Y-88955219D02*
X154631654Y-88879028D01*
X154631654Y-88879028D02*
X154688797Y-88726647D01*
X154688797Y-88726647D02*
X154688797Y-88498076D01*
X154688797Y-88498076D02*
X154631654Y-88345695D01*
X154631654Y-88345695D02*
X154574511Y-88269504D01*
X154574511Y-88269504D02*
X154460226Y-88193314D01*
X154460226Y-88193314D02*
X154003083Y-88193314D01*
D13*
X149175564Y-86642114D02*
X149213660Y-86680209D01*
X149213660Y-86680209D02*
X149289850Y-86718304D01*
X149289850Y-86718304D02*
X149480326Y-86718304D01*
X149480326Y-86718304D02*
X149556517Y-86680209D01*
X149556517Y-86680209D02*
X149594612Y-86642114D01*
X149594612Y-86642114D02*
X149632707Y-86565923D01*
X149632707Y-86565923D02*
X149632707Y-86489733D01*
X149632707Y-86489733D02*
X149594612Y-86375447D01*
X149594612Y-86375447D02*
X149137469Y-85918304D01*
X149137469Y-85918304D02*
X149632707Y-85918304D01*
X149899374Y-86718304D02*
X150394612Y-86718304D01*
X150394612Y-86718304D02*
X150127946Y-86413542D01*
X150127946Y-86413542D02*
X150242231Y-86413542D01*
X150242231Y-86413542D02*
X150318422Y-86375447D01*
X150318422Y-86375447D02*
X150356517Y-86337352D01*
X150356517Y-86337352D02*
X150394612Y-86261161D01*
X150394612Y-86261161D02*
X150394612Y-86070685D01*
X150394612Y-86070685D02*
X150356517Y-85994495D01*
X150356517Y-85994495D02*
X150318422Y-85956400D01*
X150318422Y-85956400D02*
X150242231Y-85918304D01*
X150242231Y-85918304D02*
X150013660Y-85918304D01*
X150013660Y-85918304D02*
X149937469Y-85956400D01*
X149937469Y-85956400D02*
X149899374Y-85994495D01*
X151308898Y-86756400D02*
X150623184Y-85727828D01*
X151575565Y-85918304D02*
X151575565Y-86451638D01*
X151575565Y-86299257D02*
X151613660Y-86375447D01*
X151613660Y-86375447D02*
X151651755Y-86413542D01*
X151651755Y-86413542D02*
X151727946Y-86451638D01*
X151727946Y-86451638D02*
X151804136Y-86451638D01*
X152375565Y-85956400D02*
X152299374Y-85918304D01*
X152299374Y-85918304D02*
X152146993Y-85918304D01*
X152146993Y-85918304D02*
X152070803Y-85956400D01*
X152070803Y-85956400D02*
X152032707Y-86032590D01*
X152032707Y-86032590D02*
X152032707Y-86337352D01*
X152032707Y-86337352D02*
X152070803Y-86413542D01*
X152070803Y-86413542D02*
X152146993Y-86451638D01*
X152146993Y-86451638D02*
X152299374Y-86451638D01*
X152299374Y-86451638D02*
X152375565Y-86413542D01*
X152375565Y-86413542D02*
X152413660Y-86337352D01*
X152413660Y-86337352D02*
X152413660Y-86261161D01*
X152413660Y-86261161D02*
X152032707Y-86184971D01*
X152680326Y-86451638D02*
X152870802Y-85918304D01*
X152870802Y-85918304D02*
X153061279Y-86451638D01*
X153366041Y-85994495D02*
X153404136Y-85956400D01*
X153404136Y-85956400D02*
X153366041Y-85918304D01*
X153366041Y-85918304D02*
X153327945Y-85956400D01*
X153327945Y-85956400D02*
X153366041Y-85994495D01*
X153366041Y-85994495D02*
X153366041Y-85918304D01*
X153708897Y-86642114D02*
X153746993Y-86680209D01*
X153746993Y-86680209D02*
X153823183Y-86718304D01*
X153823183Y-86718304D02*
X154013659Y-86718304D01*
X154013659Y-86718304D02*
X154089850Y-86680209D01*
X154089850Y-86680209D02*
X154127945Y-86642114D01*
X154127945Y-86642114D02*
X154166040Y-86565923D01*
X154166040Y-86565923D02*
X154166040Y-86489733D01*
X154166040Y-86489733D02*
X154127945Y-86375447D01*
X154127945Y-86375447D02*
X153670802Y-85918304D01*
X153670802Y-85918304D02*
X154166040Y-85918304D01*
%TO.C,G\u002A\u002A\u002A*%
G36*
X158383974Y-85200806D02*
G01*
X158710655Y-85204888D01*
X159014346Y-85211300D01*
X159284020Y-85220030D01*
X159508652Y-85231064D01*
X159677215Y-85244388D01*
X159778684Y-85259988D01*
X160076303Y-85364780D01*
X160415297Y-85554401D01*
X160721931Y-85805846D01*
X160805278Y-85894652D01*
X161000160Y-86161070D01*
X161182403Y-86494282D01*
X161348053Y-86886477D01*
X161493158Y-87329846D01*
X161538858Y-87493372D01*
X161631143Y-87864306D01*
X161694432Y-88200690D01*
X161732063Y-88528236D01*
X161747375Y-88872656D01*
X161743705Y-89259664D01*
X161743432Y-89269007D01*
X161724042Y-89664692D01*
X161687888Y-90013072D01*
X161629894Y-90343175D01*
X161544984Y-90684027D01*
X161428083Y-91064657D01*
X161391785Y-91172217D01*
X161215365Y-91616163D01*
X161016872Y-91989417D01*
X160791589Y-92296682D01*
X160534803Y-92542663D01*
X160241797Y-92732062D01*
X159907857Y-92869585D01*
X159528269Y-92959934D01*
X159457286Y-92969963D01*
X159266264Y-92986991D01*
X159021683Y-92999773D01*
X158735512Y-93008442D01*
X158419720Y-93013133D01*
X158086277Y-93013978D01*
X157747153Y-93011112D01*
X157414317Y-93004668D01*
X157099738Y-92994780D01*
X156815386Y-92981582D01*
X156573230Y-92965207D01*
X156385240Y-92945789D01*
X156263384Y-92923462D01*
X155900483Y-92794239D01*
X155577632Y-92613576D01*
X155302403Y-92378949D01*
X155066850Y-92083529D01*
X154863023Y-91720488D01*
X154661370Y-91298245D01*
X151339762Y-91287430D01*
X150906841Y-91286126D01*
X150357929Y-91284623D01*
X149878358Y-91283092D01*
X149462969Y-91281055D01*
X149106602Y-91278037D01*
X148804098Y-91273562D01*
X148550296Y-91267154D01*
X148340039Y-91258336D01*
X148168165Y-91246633D01*
X148029516Y-91231569D01*
X147918933Y-91212668D01*
X147831255Y-91189453D01*
X147761323Y-91161449D01*
X147703977Y-91128180D01*
X147654059Y-91089169D01*
X147606408Y-91043942D01*
X147555866Y-90992021D01*
X147497272Y-90932931D01*
X147420499Y-90856417D01*
X147290360Y-90723858D01*
X147131152Y-90559662D01*
X146956218Y-90377600D01*
X146778901Y-90191444D01*
X146268797Y-89653350D01*
X150855783Y-89663906D01*
X155442769Y-89674462D01*
X155646129Y-89781672D01*
X155782414Y-89870524D01*
X155914475Y-90011435D01*
X156019069Y-90201900D01*
X156105797Y-90456000D01*
X156137654Y-90566268D01*
X156203325Y-90773131D01*
X156268703Y-90955984D01*
X156327430Y-91097590D01*
X156373147Y-91180716D01*
X156400164Y-91215304D01*
X156438707Y-91258422D01*
X156482858Y-91292943D01*
X156540677Y-91319821D01*
X156620225Y-91340013D01*
X156729563Y-91354476D01*
X156876751Y-91364165D01*
X157069851Y-91370037D01*
X157316923Y-91373047D01*
X157626026Y-91374152D01*
X158005224Y-91374308D01*
X158110442Y-91374305D01*
X158457407Y-91374117D01*
X158736712Y-91373285D01*
X158956641Y-91371326D01*
X159125474Y-91367757D01*
X159251494Y-91362097D01*
X159342982Y-91353861D01*
X159408221Y-91342570D01*
X159455492Y-91327738D01*
X159493077Y-91308886D01*
X159529258Y-91285529D01*
X159597700Y-91222662D01*
X159702582Y-91067706D01*
X159810229Y-90842792D01*
X159918480Y-90552647D01*
X160025169Y-90202000D01*
X160048854Y-90114640D01*
X160079720Y-89986677D01*
X160101390Y-89865402D01*
X160115458Y-89733847D01*
X160123519Y-89575047D01*
X160127167Y-89372036D01*
X160127997Y-89107846D01*
X160127742Y-88956268D01*
X160125424Y-88726030D01*
X160119360Y-88547537D01*
X160107956Y-88403636D01*
X160089616Y-88277175D01*
X160062747Y-88151001D01*
X160025754Y-88007960D01*
X159951561Y-87749775D01*
X159843013Y-87427865D01*
X159735799Y-87175631D01*
X159631151Y-86995845D01*
X159530298Y-86891279D01*
X159397519Y-86802308D01*
X157080527Y-86802308D01*
X156665120Y-86801956D01*
X156158045Y-86800312D01*
X155728676Y-86797318D01*
X155376762Y-86792971D01*
X155102051Y-86787267D01*
X154904288Y-86780200D01*
X154783222Y-86771767D01*
X154738601Y-86761963D01*
X154737874Y-86717454D01*
X154769000Y-86617127D01*
X154827563Y-86481519D01*
X154905582Y-86327346D01*
X154995072Y-86171325D01*
X155088051Y-86030173D01*
X155097701Y-86016897D01*
X155326130Y-85764336D01*
X155609142Y-85544277D01*
X155926369Y-85370214D01*
X156257440Y-85255636D01*
X156266026Y-85253700D01*
X156379685Y-85238644D01*
X156558563Y-85226027D01*
X156791634Y-85215838D01*
X157067873Y-85208060D01*
X157376252Y-85202682D01*
X157705747Y-85199689D01*
X158045329Y-85199069D01*
X158383974Y-85200806D01*
G37*
%TD*%
M02*
