%TF.GenerationSoftware,KiCad,Pcbnew,7.0.5-0*%
%TF.CreationDate,2023-07-03T13:56:25+02:00*%
%TF.ProjectId,Proditor,50726f64-6974-46f7-922e-6b696361645f,rev?*%
%TF.SameCoordinates,Original*%
%TF.FileFunction,AssemblyDrawing,Top*%
%FSLAX46Y46*%
G04 Gerber Fmt 4.6, Leading zero omitted, Abs format (unit mm)*
G04 Created by KiCad (PCBNEW 7.0.5-0) date 2023-07-03 13:56:25*
%MOMM*%
%LPD*%
G01*
G04 APERTURE LIST*
%ADD10C,0.150000*%
%ADD11C,0.100000*%
G04 APERTURE END LIST*
D10*
%TO.C,SW1*%
X154731200Y-90386532D02*
X154778819Y-90243675D01*
X154778819Y-90243675D02*
X154778819Y-90005580D01*
X154778819Y-90005580D02*
X154731200Y-89910342D01*
X154731200Y-89910342D02*
X154683580Y-89862723D01*
X154683580Y-89862723D02*
X154588342Y-89815104D01*
X154588342Y-89815104D02*
X154493104Y-89815104D01*
X154493104Y-89815104D02*
X154397866Y-89862723D01*
X154397866Y-89862723D02*
X154350247Y-89910342D01*
X154350247Y-89910342D02*
X154302628Y-90005580D01*
X154302628Y-90005580D02*
X154255009Y-90196056D01*
X154255009Y-90196056D02*
X154207390Y-90291294D01*
X154207390Y-90291294D02*
X154159771Y-90338913D01*
X154159771Y-90338913D02*
X154064533Y-90386532D01*
X154064533Y-90386532D02*
X153969295Y-90386532D01*
X153969295Y-90386532D02*
X153874057Y-90338913D01*
X153874057Y-90338913D02*
X153826438Y-90291294D01*
X153826438Y-90291294D02*
X153778819Y-90196056D01*
X153778819Y-90196056D02*
X153778819Y-89957961D01*
X153778819Y-89957961D02*
X153826438Y-89815104D01*
X153778819Y-89481770D02*
X154778819Y-89243675D01*
X154778819Y-89243675D02*
X154064533Y-89053199D01*
X154064533Y-89053199D02*
X154778819Y-88862723D01*
X154778819Y-88862723D02*
X153778819Y-88624628D01*
X154778819Y-87719866D02*
X154778819Y-88291294D01*
X154778819Y-88005580D02*
X153778819Y-88005580D01*
X153778819Y-88005580D02*
X153921676Y-88100818D01*
X153921676Y-88100818D02*
X154016914Y-88196056D01*
X154016914Y-88196056D02*
X154064533Y-88291294D01*
%TO.C,J2*%
X150366666Y-92774419D02*
X150366666Y-93488704D01*
X150366666Y-93488704D02*
X150319047Y-93631561D01*
X150319047Y-93631561D02*
X150223809Y-93726800D01*
X150223809Y-93726800D02*
X150080952Y-93774419D01*
X150080952Y-93774419D02*
X149985714Y-93774419D01*
X150795238Y-92869657D02*
X150842857Y-92822038D01*
X150842857Y-92822038D02*
X150938095Y-92774419D01*
X150938095Y-92774419D02*
X151176190Y-92774419D01*
X151176190Y-92774419D02*
X151271428Y-92822038D01*
X151271428Y-92822038D02*
X151319047Y-92869657D01*
X151319047Y-92869657D02*
X151366666Y-92964895D01*
X151366666Y-92964895D02*
X151366666Y-93060133D01*
X151366666Y-93060133D02*
X151319047Y-93202990D01*
X151319047Y-93202990D02*
X150747619Y-93774419D01*
X150747619Y-93774419D02*
X151366666Y-93774419D01*
%TO.C,H1*%
X157512095Y-89558019D02*
X157512095Y-88558019D01*
X157512095Y-89034209D02*
X158083523Y-89034209D01*
X158083523Y-89558019D02*
X158083523Y-88558019D01*
X159083523Y-89558019D02*
X158512095Y-89558019D01*
X158797809Y-89558019D02*
X158797809Y-88558019D01*
X158797809Y-88558019D02*
X158702571Y-88700876D01*
X158702571Y-88700876D02*
X158607333Y-88796114D01*
X158607333Y-88796114D02*
X158512095Y-88843733D01*
D11*
%TO.C,SW1*%
X155274000Y-92353200D02*
X155274000Y-85853200D01*
X161274000Y-92353200D02*
X155274000Y-92353200D01*
X155274000Y-85853200D02*
X161274000Y-85853200D01*
X161274000Y-85853200D02*
X161274000Y-92353200D01*
X159774000Y-89103200D02*
G75*
G03*
X159774000Y-89103200I-1500000J0D01*
G01*
X160174000Y-89103200D02*
G75*
G03*
X160174000Y-89103200I-1900000J0D01*
G01*
%TO.C,R1*%
X152300000Y-86202500D02*
X152300000Y-85377500D01*
X153900000Y-86202500D02*
X152300000Y-86202500D01*
X152300000Y-85377500D02*
X153900000Y-85377500D01*
X153900000Y-85377500D02*
X153900000Y-86202500D01*
%TO.C,C1*%
X146190000Y-93720000D02*
X144590000Y-93720000D01*
X144590000Y-93720000D02*
X144590000Y-92920000D01*
X144590000Y-92920000D02*
X146190000Y-92920000D01*
X146190000Y-92920000D02*
X146190000Y-93720000D01*
%TO.C,J2*%
X147415000Y-94369600D02*
X146890000Y-93844600D01*
X154510000Y-94369600D02*
X147415000Y-94369600D01*
X146890000Y-93844600D02*
X146890000Y-92269600D01*
X146890000Y-92269600D02*
X154510000Y-92269600D01*
X154510000Y-92269600D02*
X154510000Y-94369600D01*
%TO.C,U2*%
X151667800Y-88050000D02*
X154567800Y-88050000D01*
X154567800Y-89350000D02*
X151992800Y-89350000D01*
X151992800Y-89350000D02*
X151667800Y-89025000D01*
X154567800Y-88050000D02*
X154567800Y-89350000D01*
X151667800Y-89025000D02*
X151667800Y-88050000D01*
%TO.C,D1*%
X152287500Y-83960000D02*
X152287500Y-84460000D01*
X152287500Y-84460000D02*
X153887500Y-84460000D01*
X152587500Y-83660000D02*
X152287500Y-83960000D01*
X152887500Y-84060000D02*
X153187500Y-84260000D01*
X153187500Y-83860000D02*
X152887500Y-84060000D01*
X153187500Y-83860000D02*
X153187500Y-84260000D01*
X153887500Y-83660000D02*
X152587500Y-83660000D01*
X153887500Y-84460000D02*
X153887500Y-83660000D01*
%TO.C,U1*%
X145547800Y-84527200D02*
X146522800Y-83552200D01*
X149447800Y-83552200D02*
X149447800Y-92202200D01*
X149447800Y-92202200D02*
X145547800Y-92202200D01*
X145547800Y-92202200D02*
X145547800Y-84527200D01*
X146522800Y-83552200D02*
X149447800Y-83552200D01*
%TO.C,C2*%
X153900000Y-92000000D02*
X152300000Y-92000000D01*
X152300000Y-92000000D02*
X152300000Y-91200000D01*
X152300000Y-91200000D02*
X153900000Y-91200000D01*
X153900000Y-91200000D02*
X153900000Y-92000000D01*
%TD*%
M02*
